<?xml version="1.0" encoding="UTF-8" standalone="no"?>
<!-- Created with Inkscape (http://www.inkscape.org/) -->

<svg
   xmlns:dc="http://purl.org/dc/elements/1.1/"
   xmlns:cc="http://creativecommons.org/ns#"
   xmlns:rdf="http://www.w3.org/1999/02/22-rdf-syntax-ns#"
   xmlns:svg="http://www.w3.org/2000/svg"
   xmlns="http://www.w3.org/2000/svg"
   xmlns:sodipodi="http://sodipodi.sourceforge.net/DTD/sodipodi-0.dtd"
   xmlns:inkscape="http://www.inkscape.org/namespaces/inkscape"
   width="49.25098"
   height="61.242001"
   id="svg3557"
   version="1.1"
   inkscape:version="0.48.5 r10040"
   sodipodi:docname="New document 9">
  <defs
     id="defs3559" />
  <sodipodi:namedview
     id="base"
     pagecolor="#ffffff"
     bordercolor="#666666"
     borderopacity="1.0"
     inkscape:pageopacity="0.0"
     inkscape:pageshadow="2"
     inkscape:zoom="0.35"
     inkscape:cx="-28.94995"
     inkscape:cy="-249.3845"
     inkscape:document-units="px"
     inkscape:current-layer="layer1"
     showgrid="false"
     fit-margin-top="0"
     fit-margin-left="0"
     fit-margin-right="0"
     fit-margin-bottom="0"
     inkscape:window-width="503"
     inkscape:window-height="418"
     inkscape:window-x="1907"
     inkscape:window-y="221"
     inkscape:window-maximized="0" />
  <metadata
     id="metadata3562">
    <rdf:RDF>
      <cc:Work
         rdf:about="">
        <dc:format>image/svg+xml</dc:format>
        <dc:type
           rdf:resource="http://purl.org/dc/dcmitype/StillImage" />
        <dc:title></dc:title>
      </cc:Work>
    </rdf:RDF>
  </metadata>
  <g
     inkscape:label="Layer 1"
     inkscape:groupmode="layer"
     id="layer1"
     transform="translate(-403.94995,-221.73568)">
    <g
       transform="translate(403.95093,215.10268)"
       id="g3304">
      <path
         style="fill:#7bafd4"
         inkscape:connector-curvature="0"
         id="path3306"
         d="m 25.602,20.367 c 0.113,0.109 0.184,0.094 0.184,0.094 8.453,-0.332 13.296,2.882 13.707,4.201 l 3.379,-0.061 1.051,-2.285 c 0.064,-0.189 0.031,-0.469 -0.036,-0.543 -1.016,-1.129 -9.523,-3.559 -19.789,-3.559 -10.954,0 -17.9,2.162 -19.363,3.246 0,0 -0.352,0.211 -0.361,0.531 -0.006,0.148 0.208,0.562 0.208,0.562 l 0.297,0.645 c 0.094,0.188 0.223,0.176 0.445,0.047 0,0 0.2,-0.062 0.238,-0.193 C 5.602,22.921 5.478,22.695 5.478,22.695 5.26,22.25 5.548,22.191 5.566,22.183 l 0.627,-0.285 c 0.298,-0.086 0.334,0.072 0.434,0.309 0,0 0.115,0.328 0.197,0.379 0.157,0.098 0.657,-0.188 2.149,-0.551 0.101,-0.02 0.156,-0.029 0.355,-0.11 0.145,-0.058 0.016,-0.558 0.016,-0.558 -0.053,-0.25 -0.168,-0.5 0.375,-0.59 l 0.934,-0.186 c 0.434,-0.115 0.475,0.111 0.527,0.361 0,0 0.027,0.379 0.125,0.535 0.124,0.2 0.348,-0.117 3.195,-0.421 0,0 0.415,-0.012 0.496,-0.154 0.086,-0.15 0.016,-0.487 0.016,-0.487 -0.031,-0.343 -0.171,-0.596 0.488,-0.636 l 1.246,-0.114 c 0.934,-0.152 0.775,0.161 0.809,0.504 0,0 0.032,0.371 0.102,0.438 0.07,0.068 0.365,0.062 0.365,0.062 1.598,-0.164 2.49,-0.156 4.186,-0.229 0,0 0.237,-0.002 0.325,-0.1 0.085,-0.098 0.062,-0.203 0.062,-0.203 0,-0.191 -0.041,-0.496 0.082,-0.629 0.141,-0.146 0.36,-0.08 0.582,-0.08 l 1.426,-0.002 c 0.219,0 0.668,-0.098 0.795,0.059 0.083,0.102 0.057,0.707 0.057,0.707 0,0 -10e-4,0.098 0.065,0.165 z" />
      <path
         style="fill:#7bafd4"
         inkscape:connector-curvature="0"
         id="path3308"
         d="m 24.165,6.633 c -8.266,0 -13.348,2.652 -16.604,5.848 0,0 -0.057,0.055 -0.086,0.137 -0.06,0.164 -0.076,0.404 0.26,0.289 7.078,-2.971 14.812,-1.109 17.277,1.691 0.086,0.129 0.008,0.162 -0.096,0.164 -2.49,0.025 -4.576,-0.121 -9.178,0.523 -2.488,0.352 -4.701,0.713 -6.57,1.199 -3.078,0.801 -5.26,1.801 -6.479,2.609 -0.448,0.243 -0.483,0.415 -0.594,0.622 -0.13,0.4 -0.115,0.398 -0.201,0.672 -0.152,0.516 -0.23,0.848 -0.259,1.02 -0.053,0.312 0.289,0.203 0.467,0.021 0.371,-0.371 1.386,-1.268 2.879,-1.963 1.519,-0.707 4.035,-1.512 6.761,-2.016 3.637,-0.672 8.065,-1.1 12.114,-1.109 4.695,-0.012 8.902,0.475 12.422,1.16 3.576,0.699 6.406,1.668 8.234,2.559 0.859,0.418 1.34,0.801 1.917,1.291 0.455,0.465 0.482,0.064 0.475,-0.057 0,0 -0.086,-0.621 -0.848,-2.022 C 43.719,14.977 37.477,6.633 24.165,6.633" />
      <path
         style="fill:#7bafd4;stroke:#7bafd4;stroke-width:0.25;stroke-linejoin:round"
         inkscape:connector-curvature="0"
         id="path3310"
         d="m 0.153,61.906 c 0,1.92 7.976,5.855 24.484,5.855 16.02,0 24.48,-3.936 24.48,-5.855 l -0.082,-2.945 c 0,0.062 -0.012,-0.191 -0.036,-0.125 -0.027,-0.531 -0.875,-0.637 -3.463,-0.672 l -0.059,-1.633 c 0,0.168 -0.546,0.523 -0.887,0.719 -2.107,1.218 -10.169,3.031 -20.251,3.031 -11.676,0 -19.85,-2.423 -21.139,-3.75 L 3.172,59.05 c 3.843,2.745 15.68,5.208 27.632,3.938 0.356,-0.013 0.477,-0.085 0.838,0.019 0.098,0.029 0.426,0.318 -0.225,0.557 -6.93,2.291 -24.045,1.779 -31.293,-3.723 l 0.033,2.066" />
      <g
         id="g3312">
        <path
           style="fill:none"
           inkscape:connector-curvature="0"
           id="path3314"
           d="m 34.303,23.879 h 0.145 c -0.024,-0.004 -0.049,-0.008 -0.073,-0.008 -0.027,0 -0.051,0.004 -0.072,0.008 z" />
        <path
           style="fill:none"
           inkscape:connector-curvature="0"
           id="path3316"
           d="m 34.125,24.5 c 0,0.008 0.002,0.017 0.004,0.027 v -0.516 l 0,0 0,0 c -10e-4,0.008 -0.004,0.016 -0.004,0.027 V 24.5 z" />
        <rect
           style="fill:#7bafd4"
           id="rect3318"
           height="0.51599997"
           width="0"
           y="24.011999"
           x="34.129002" />
        <path
           style="fill:#7bafd4"
           inkscape:connector-curvature="0"
           id="path3320"
           d="m 29.75,23.691 c 0.008,0 0.012,-0.004 0.02,-0.004 h -0.037 c 0.005,10e-4 0.012,0.004 0.017,0.004 z" />
        <rect
           style="fill:#7bafd4"
           id="rect3322"
           height="0"
           width="0"
           y="24.527"
           x="34.129002" />
      </g>
      <path
         style="fill:#7bafd4"
         inkscape:connector-curvature="0"
         id="path3324"
         d="M 34.415,22.699 29.9,22.695 c -0.221,-0.004 -0.318,0.109 -0.322,0.328 v 0.506 c -10e-4,0.238 0.102,0.344 0.34,0.346 h 1.398 c 0.129,-0.008 0.162,0.05 0.168,0.07 0.055,0.141 -0.203,0.258 -0.29,0.316 l -0.689,0.449 c -0.096,0.059 -0.186,0.185 -0.184,0.431 l -0.029,32.345 c 0.066,0.567 0.968,0.621 1.953,0.618 0.831,-0.004 1.809,-0.049 1.912,-0.602 0,0 -0.027,-30.786 0.002,-33.443 0.004,-0.123 0.059,-0.15 0.078,-0.162 0.031,-0.02 0.172,-0.031 0.172,-0.031 0.207,-0.008 0.316,-0.109 0.318,-0.314 V 23.007 C 34.719,22.809 34.59,22.705 34.415,22.699 z" />
      <path
         style="fill:#7bafd4;stroke:#7bafd4;stroke-width:0.25;stroke-linejoin:round"
         inkscape:connector-curvature="0"
         id="path3326"
         d="m 26.999,45.199 0.107,-0.216 h 0.305 l -0.002,-0.202 h -6.268 l -10e-4,0.202 h 0.334 l 0.092,0.196 0.376,0.788 c 0,0 0.066,0.071 0.149,0.106 0.082,0.034 0.246,0.047 0.304,0.049 1.646,0.014 1.289,-0.002 1.549,-0.002 0.121,0.004 0.287,0.006 0.369,0.105 0.055,0.069 0.1,0.26 -0.129,0.412 -0.537,0.357 -1.434,0.943 -1.855,1.219 -0.05,0.029 -0.191,0.123 -0.238,0.238 -0.051,0.131 -0.042,0.229 -0.042,0.229 v 6.078 l -0.533,0.206 c 0,0 -0.16,1.212 0.024,1.337 0.176,0.119 5.285,0.119 5.46,0.008 0.176,-0.113 0.024,-1.367 0.024,-1.367 l -0.539,-0.184 v -8.16 l 0.514,-1.042 z" />
      <path
         style="fill:#7bafd4"
         inkscape:connector-curvature="0"
         id="path3328"
         d="m 43.168,24.461 -4.516,-0.004 c -0.219,-0.004 -0.321,0.109 -0.325,0.33 v 0.504 c 0,0.24 0.102,0.342 0.342,0.346 h 1.4 c 0.127,-0.008 0.161,0.051 0.166,0.07 0.055,0.141 -0.203,0.258 -0.291,0.316 l -0.688,0.449 c -0.097,0.059 -0.188,0.184 -0.184,0.434 l -0.029,29.16 c 0.066,0.57 0.967,0.621 1.951,0.617 0.832,-0.002 1.809,-0.047 1.915,-0.601 0,0 -0.028,-27.603 0.004,-30.261 0,-0.123 0.055,-0.15 0.074,-0.162 0.031,-0.02 0.172,-0.031 0.172,-0.031 0.207,-0.008 0.318,-0.109 0.32,-0.314 V 24.77 c -0.008,-0.2 -0.135,-0.303 -0.311,-0.309 z" />
      <path
         style="fill:#7bafd4"
         inkscape:connector-curvature="0"
         id="path3330"
         d="m 18.496,22.699 -4.511,-0.004 c -0.221,0 -0.32,0.111 -0.324,0.332 v 0.504 c 0,0.238 0.101,0.344 0.342,0.344 H 15.4 c 0.127,-0.008 0.161,0.055 0.166,0.07 0.055,0.141 -0.203,0.259 -0.289,0.316 l -0.688,0.449 c -0.098,0.059 -0.188,0.188 -0.186,0.434 l -0.029,32.348 c 0.066,0.564 0.969,0.619 1.953,0.613 0.833,0 1.809,-0.047 1.913,-0.598 0,0 -0.025,-30.785 0.004,-33.445 0.001,-0.123 0.056,-0.152 0.076,-0.164 0.032,-0.02 0.172,-0.031 0.172,-0.031 0.207,-0.004 0.316,-0.109 0.319,-0.312 V 23.01 c -0.01,-0.199 -0.139,-0.305 -0.315,-0.311 z" />
      <path
         style="fill:#7bafd4"
         inkscape:connector-curvature="0"
         id="path3332"
         d="M 9.715,24.545 5.199,24.539 c -0.218,0 -0.32,0.113 -0.324,0.332 v 0.504 c 0,0.238 0.102,0.343 0.342,0.343 l 1.4,0.004 c 0.127,-0.012 0.161,0.051 0.166,0.07 0.055,0.139 -0.203,0.257 -0.291,0.316 L 5.804,26.555 C 5.706,26.611 5.616,26.741 5.62,26.986 L 5.592,56.152 c 0.065,0.565 0.969,0.618 1.952,0.617 0.832,-0.003 1.809,-0.052 1.914,-0.602 0,0 -0.027,-27.602 0.004,-30.262 0,-0.121 0.054,-0.15 0.074,-0.162 0.031,-0.021 0.171,-0.033 0.171,-0.033 0.208,-0.004 0.318,-0.105 0.321,-0.312 V 24.855 C 10.018,24.656 9.889,24.55 9.715,24.545 z" />
    </g>
  </g>
</svg>
