<?xml version="1.0" standalone="no"?>
<!DOCTYPE svg PUBLIC "-//W3C//DTD SVG 20010904//EN"
 "http://www.w3.org/TR/2001/REC-SVG-20010904/DTD/svg10.dtd">
<svg version="1.0" xmlns="http://www.w3.org/2000/svg"
 width="700.000000pt" height="700.000000pt" viewBox="0 0 700.000000 700.000000"
 preserveAspectRatio="xMidYMid meet">
<metadata>
Created by potrace 1.11, written by Peter Selinger 2001-2013
</metadata>
<g transform="translate(0.000000,700.000000) scale(0.100000,-0.100000)"
fill="#000000" stroke="none">
<path d="M2159 5403 c-32 -31 -59 -62 -59 -69 0 -18 119 -144 135 -144 8 0 41
26 75 59 52 49 60 61 52 77 -20 36 -114 134 -129 134 -8 0 -41 -25 -74 -57z"/>
<path d="M1957 5232 c-31 -32 -57 -63 -57 -69 0 -23 211 -253 232 -253 17 0
128 107 128 124 0 12 -189 231 -214 248 -21 14 -32 8 -89 -50z"/>
<path d="M2334 5217 c-69 -64 -68 -75 8 -161 64 -70 72 -70 147 9 43 46 50 58
42 74 -18 33 -112 131 -127 131 -7 0 -39 -24 -70 -53z"/>
<path d="M1785 5049 c-30 -28 -55 -60 -55 -71 0 -17 215 -263 246 -281 8 -4
22 -3 32 2 23 12 112 107 112 120 0 17 -243 276 -262 279 -11 2 -40 -17 -73
-49z"/>
<path d="M2522 5014 c-34 -31 -62 -62 -62 -69 0 -24 112 -145 135 -145 26 0
125 99 125 125 0 20 -111 145 -128 145 -5 0 -36 -25 -70 -56z"/>
<path d="M2237 4932 c-31 -32 -57 -66 -57 -76 0 -22 108 -136 129 -136 18 0
131 109 131 125 0 14 -123 145 -136 145 -5 0 -35 -26 -67 -58z"/>
<path d="M1587 4861 c-59 -57 -60 -59 -45 -83 36 -55 322 -358 338 -358 14 0
130 109 130 123 0 21 -327 377 -346 377 -9 0 -43 -26 -77 -59z"/>
<path d="M2699 4813 c-32 -31 -59 -62 -59 -69 0 -17 119 -144 135 -144 19 0
125 106 125 125 0 21 -109 145 -128 145 -7 0 -40 -25 -73 -57z"/>
<path d="M3938 4738 c-24 -42 -33 -67 -27 -75 6 -6 68 -52 139 -103 451 -321
836 -691 1028 -989 97 -149 180 -365 229 -596 25 -118 27 -149 28 -345 0 -201
-2 -222 -27 -320 -15 -58 -40 -137 -55 -175 -144 -351 -464 -596 -898 -686
-131 -27 -354 -29 -470 -4 -435 93 -912 412 -1170 783 -76 108 -128 145 -209
144 -66 0 -127 -29 -179 -85 l-37 -40 -78 75 c-88 85 -123 107 -191 115 -95
11 -120 -8 -392 -300 -134 -143 -318 -340 -408 -435 -90 -96 -170 -191 -179
-211 -22 -53 -20 -138 5 -186 12 -22 113 -130 225 -241 172 -170 211 -203 252
-217 27 -9 66 -17 85 -17 80 1 100 19 527 473 235 251 416 453 426 474 23 50
22 128 -1 179 -11 23 -49 75 -86 115 l-67 73 24 18 c37 30 79 50 92 45 7 -3
39 -43 71 -89 72 -103 317 -348 445 -445 262 -198 555 -336 825 -390 127 -25
417 -25 535 0 542 116 940 470 1059 943 50 201 58 448 22 687 -41 273 -143
552 -276 758 -181 281 -554 644 -995 971 -98 72 -224 158 -233 158 -1 0 -19
-28 -39 -62z m-1862 -2447 c21 -16 63 -53 91 -83 l53 -54 -104 -114 c-57 -63
-116 -127 -132 -142 l-29 -27 -104 104 -104 104 88 96 c147 160 168 170 241
116z m312 -305 c108 -111 105 -121 -77 -316 l-70 -75 -95 95 -96 95 128 137
c70 76 130 138 133 138 3 0 38 -33 77 -74z m-470 -236 l242 -236 -87 -94
c-209 -230 -436 -459 -458 -464 -14 -4 -39 0 -57 8 -18 8 -117 97 -219 198
-200 196 -215 218 -186 275 18 34 506 555 517 551 4 -2 116 -109 248 -238z"/>
<path d="M2417 4727 c-31 -29 -57 -59 -57 -68 0 -17 93 -124 121 -140 16 -8
29 -1 79 47 33 31 60 65 60 74 0 23 -108 140 -128 140 -10 -1 -43 -24 -75 -53z"/>
<path d="M2103 4700 c-32 -29 -53 -57 -53 -70 0 -26 106 -140 129 -140 24 0
121 102 121 125 -1 26 -104 135 -127 135 -10 -1 -42 -23 -70 -50z"/>
<path d="M1395 4685 c-54 -49 -58 -56 -50 -79 12 -31 202 -236 219 -236 6 0
38 23 70 51 43 39 56 57 54 74 -4 29 -196 245 -217 245 -9 -1 -43 -25 -76 -55z"/>
<path d="M2900 4607 c-38 -33 -59 -60 -60 -74 0 -26 105 -143 129 -143 22 0
121 101 121 123 0 19 -94 133 -117 141 -7 3 -40 -18 -73 -47z"/>
<path d="M2601 4534 c-34 -31 -61 -63 -61 -71 0 -24 110 -143 132 -143 26 0
128 98 128 122 0 19 -115 148 -131 148 -4 0 -35 -25 -68 -56z"/>
<path d="M2288 4494 c-32 -31 -58 -62 -58 -69 0 -16 95 -121 122 -136 15 -8
28 -1 78 47 33 31 60 64 60 73 0 22 -108 141 -128 141 -9 0 -43 -25 -74 -56z"/>
<path d="M1990 4434 c-33 -31 -60 -63 -60 -70 0 -20 111 -144 129 -144 21 0
131 104 131 124 0 16 -93 122 -122 137 -15 8 -28 1 -78 -47z"/>
<path d="M3068 4412 c-57 -55 -61 -62 -51 -84 18 -38 103 -128 121 -128 20 0
132 105 132 123 0 15 -96 124 -121 138 -17 9 -29 1 -81 -49z"/>
<path d="M1659 4391 c-55 -53 -60 -61 -49 -81 18 -33 151 -170 165 -170 22 0
125 104 125 125 0 24 -145 185 -166 185 -8 0 -42 -27 -75 -59z"/>
<path d="M2788 4316 c-32 -30 -58 -59 -58 -64 0 -22 114 -142 135 -142 25 0
125 98 125 124 0 22 -108 136 -129 136 -9 0 -42 -25 -73 -54z"/>
<path d="M2466 4291 l-59 -60 17 -26 c10 -15 39 -49 66 -77 55 -57 55 -58 138
20 50 46 53 52 42 73 -19 36 -112 129 -130 129 -9 0 -42 -27 -74 -59z"/>
<path d="M2174 4229 c-30 -29 -54 -60 -54 -70 0 -27 101 -138 126 -139 23 0
134 98 134 119 0 18 -120 141 -137 141 -8 0 -39 -23 -69 -51z"/>
<path d="M3269 4193 c-32 -31 -59 -62 -59 -69 0 -21 110 -144 128 -144 19 0
132 109 132 126 0 14 -119 144 -132 144 -5 0 -36 -25 -69 -57z"/>
<path d="M1891 4160 c-32 -28 -61 -56 -64 -64 -3 -7 2 -25 12 -39 31 -48 143
-157 160 -157 22 0 121 101 121 124 0 17 -134 171 -157 180 -7 3 -39 -17 -72
-44z"/>
<path d="M2964 4129 c-30 -29 -54 -61 -54 -71 0 -25 107 -138 130 -138 19 0
130 102 130 118 0 20 -115 142 -133 142 -10 0 -43 -23 -73 -51z"/>
<path d="M2654 4099 c-32 -31 -54 -60 -54 -73 0 -23 109 -146 129 -146 14 0
108 87 122 112 12 22 2 37 -65 108 -26 28 -54 50 -62 50 -8 0 -40 -23 -70 -51z"/>
<path d="M2356 4029 c-31 -28 -56 -59 -56 -69 0 -28 108 -140 134 -140 24 0
126 97 126 119 0 22 -110 141 -130 141 -10 0 -44 -23 -74 -51z"/>
<path d="M3452 3987 c-29 -29 -52 -60 -52 -69 0 -26 102 -138 125 -138 26 0
125 99 125 126 0 23 -108 134 -131 134 -8 0 -38 -24 -67 -53z"/>
<path d="M3162 3907 c-29 -29 -52 -61 -52 -71 0 -22 108 -136 129 -136 17 0
131 104 131 120 0 20 -115 140 -135 140 -12 0 -43 -22 -73 -53z"/>
<path d="M2125 3886 c-54 -49 -59 -56 -50 -80 15 -38 1033 -1146 1053 -1146
18 0 132 104 132 121 0 5 -46 60 -102 122 -56 61 -161 177 -232 256 -609 671
-711 781 -730 781 -6 -1 -38 -25 -71 -54z"/>
<path d="M2835 3886 c-51 -46 -58 -56 -50 -74 15 -32 115 -132 131 -132 24 0
124 100 124 124 0 25 -105 136 -128 136 -10 0 -44 -24 -77 -54z"/>
<path d="M2538 3826 c-32 -30 -58 -60 -58 -68 0 -16 95 -124 121 -139 16 -8
29 -1 79 47 33 31 60 65 60 75 0 23 -107 139 -129 139 -9 0 -42 -25 -73 -54z"/>
<path d="M3653 3770 c-31 -28 -53 -57 -53 -69 0 -27 88 -128 118 -137 20 -5
33 3 78 47 31 31 54 62 54 74 -1 26 -103 135 -127 135 -10 -1 -42 -23 -70 -50z"/>
<path d="M3348 3701 c-54 -54 -58 -61 -48 -81 16 -29 113 -130 126 -130 17 0
124 109 124 127 0 23 -107 143 -127 143 -9 0 -43 -27 -75 -59z"/>
<path d="M3032 3677 c-29 -29 -52 -61 -52 -71 0 -22 108 -136 129 -136 18 1
92 67 116 104 15 23 14 26 -42 90 -36 40 -66 66 -78 66 -12 0 -44 -23 -73 -53z"/>
<path d="M2728 3626 c-32 -29 -58 -61 -58 -70 0 -24 108 -146 129 -146 17 0
131 106 131 122 0 22 -114 148 -133 148 -7 -1 -38 -25 -69 -54z"/>
<path d="M3838 3564 c-32 -31 -58 -62 -58 -69 0 -16 95 -121 122 -136 15 -8
28 -1 78 47 33 31 60 63 60 71 0 20 -112 143 -130 143 -8 0 -41 -25 -72 -56z"/>
<path d="M3546 3481 c-68 -69 -69 -63 22 -160 38 -40 54 -51 66 -44 32 18 116
106 116 121 0 23 -108 142 -129 142 -9 0 -43 -27 -75 -59z"/>
<path d="M3228 3469 c-32 -28 -58 -59 -58 -69 0 -26 107 -140 132 -140 22 0
114 83 123 111 5 14 -10 37 -51 84 -32 36 -65 65 -73 65 -9 0 -42 -23 -73 -51z"/>
<path d="M2917 3407 c-31 -29 -57 -57 -57 -63 0 -20 113 -144 132 -144 26 0
128 98 128 122 0 24 -107 138 -130 138 -9 0 -42 -24 -73 -53z"/>
<path d="M4038 3346 c-32 -30 -58 -58 -58 -63 0 -30 107 -143 135 -143 24 0
125 98 125 121 0 22 -108 139 -128 139 -10 0 -43 -25 -74 -54z"/>
<path d="M3738 3282 c-46 -45 -59 -63 -54 -78 9 -27 110 -134 127 -134 19 0
129 107 129 126 0 17 -117 144 -133 144 -5 0 -36 -26 -69 -58z"/>
<path d="M3417 3252 c-31 -32 -57 -61 -57 -64 0 -13 100 -127 120 -138 18 -9
29 -3 80 46 33 31 60 64 60 72 0 22 -109 142 -129 142 -9 0 -42 -26 -74 -58z"/>
<path d="M3111 3196 c-43 -44 -52 -59 -47 -78 8 -30 103 -128 125 -128 23 0
121 101 121 125 0 25 -106 135 -129 135 -9 0 -41 -24 -70 -54z"/>
<path d="M4228 3149 c-35 -31 -58 -59 -58 -71 0 -25 105 -148 127 -148 19 0
133 109 133 127 0 17 -118 143 -134 143 -6 0 -37 -23 -68 -51z"/>
<path d="M3937 3062 c-31 -32 -57 -63 -57 -69 0 -16 97 -126 121 -137 17 -8
30 0 79 49 33 33 60 66 60 75 0 17 -119 140 -136 140 -5 0 -35 -26 -67 -58z"/>
<path d="M3609 3053 c-32 -31 -59 -62 -59 -69 0 -21 110 -144 128 -144 20 0
132 106 132 125 0 15 -118 145 -132 145 -5 0 -36 -25 -69 -57z"/>
<path d="M3306 2989 c-32 -29 -56 -60 -56 -71 0 -25 107 -138 132 -138 20 0
128 99 128 117 0 19 -114 143 -132 143 -9 0 -42 -23 -72 -51z"/>
<path d="M4418 2921 c-50 -50 -58 -62 -49 -78 18 -32 117 -133 131 -133 7 0
40 27 72 59 51 51 58 62 49 79 -19 36 -113 132 -129 132 -8 0 -42 -27 -74 -59z"/>
<path d="M4143 2879 c-75 -63 -85 -77 -72 -102 18 -35 112 -127 129 -127 16 0
130 109 130 124 0 11 -102 126 -122 137 -13 7 -28 0 -65 -32z"/>
<path d="M3792 2847 c-29 -29 -52 -60 -52 -69 0 -25 102 -138 125 -138 27 0
125 97 125 124 0 25 -107 136 -131 136 -8 0 -38 -24 -67 -53z"/>
<path d="M3492 2782 c-34 -31 -62 -62 -62 -67 0 -16 120 -145 135 -145 16 0
111 85 126 111 8 16 0 31 -52 89 -34 39 -67 70 -74 70 -6 0 -40 -26 -73 -58z"/>
<path d="M4617 2711 c-52 -50 -60 -62 -51 -79 9 -20 127 -154 241 -274 30 -32
60 -58 67 -58 7 0 38 23 70 51 42 39 56 57 54 74 -3 24 -291 345 -309 345 -6
0 -38 -27 -72 -59z"/>
<path d="M4321 2641 c-59 -55 -62 -60 -51 -82 19 -36 112 -129 130 -129 19 0
134 114 129 128 -8 21 -121 142 -132 142 -7 0 -41 -26 -76 -59z"/>
<path d="M3269 2631 c-60 -55 -63 -60 -51 -82 19 -35 148 -169 162 -169 7 0
39 26 72 58 46 45 59 63 54 78 -8 24 -148 174 -163 174 -5 0 -39 -26 -74 -59z"/>
<path d="M3999 2633 c-32 -31 -59 -64 -59 -74 0 -25 89 -126 118 -135 20 -5
34 3 83 52 32 32 59 62 59 65 0 12 -110 137 -126 143 -10 4 -36 -14 -75 -51z"/>
<path d="M3679 2583 c-32 -31 -59 -63 -59 -71 0 -19 128 -162 145 -162 20 0
125 106 125 127 0 20 -124 163 -142 163 -5 0 -36 -25 -69 -57z"/>
<path d="M4518 2429 c-32 -28 -58 -58 -58 -68 0 -22 198 -241 218 -241 8 0 42
27 74 59 47 47 58 63 50 76 -21 39 -196 225 -211 225 -9 0 -42 -23 -73 -51z"/>
<path d="M4192 2412 c-34 -31 -62 -63 -62 -69 0 -12 323 -372 347 -386 7 -4
21 -3 31 2 24 13 112 107 112 121 0 11 -20 34 -184 215 -120 132 -162 175
-175 175 -4 0 -36 -26 -69 -58z"/>
<path d="M3506 2379 c-32 -29 -56 -59 -56 -71 0 -29 147 -188 174 -188 25 0
126 97 126 121 0 21 -152 189 -171 189 -10 0 -43 -23 -73 -51z"/>
<path d="M3895 2336 c-54 -49 -58 -55 -49 -77 17 -36 434 -489 451 -489 18 0
133 108 133 125 0 20 -439 495 -458 495 -9 0 -44 -25 -77 -54z"/>
<path d="M3740 2111 c-48 -45 -60 -62 -53 -75 5 -9 51 -63 103 -121 61 -67
102 -105 115 -105 26 0 125 95 125 119 0 22 -195 241 -214 241 -7 0 -41 -26
-76 -59z"/>
</g>
</svg>
